<?xml version="1.0" encoding="utf-8"?><svg xmlns="http://www.w3.org/2000/svg" width="176.39mm" height="38.44mm" viewBox="0 0 500 108.96"><path d="M500,60.52V51.25H483.77V30.91H474.5V51.25h-11v9.27h11V83.46A25.5,25.5,0,0,0,500,109V99.69a16.23,16.23,0,0,1-16.23-16.23V60.52Z" fill="#888"/><path d="M438,48.69a25.5,25.5,0,0,0-25.5,25.5v34h9.27v-34a16.23,16.23,0,0,1,32.46,0v34h9.27v-34A25.49,25.49,0,0,0,438,48.69Z" fill="#888"/><path d="M335.24,57.08a30.14,30.14,0,1,0,9.27,21.75V30.91h-9.27ZM314.37,99.69a20.87,20.87,0,1,1,20.87-20.86A20.86,20.86,0,0,1,314.37,99.69Z" fill="#888"/><path d="M378.52,48.69a30.14,30.14,0,1,0,26.73,44.07l-8.05-4.64a20.87,20.87,0,0,1-39.32-6.2H408.5c.1-1,.16-2,.16-3.09A30.14,30.14,0,0,0,378.52,48.69Zm0,9.27a20.87,20.87,0,0,1,19.93,14.68H358.58A20.89,20.89,0,0,1,378.52,58Z" fill="#888"/><path d="M3.86,0A15.46,15.46,0,0,0,19.32,15.46h27A15.5,15.5,0,0,1,61.82,31V61.78a15.5,15.5,0,0,1-15.5,15.5H15.5A15.5,15.5,0,0,1,0,61.78V0Z" fill="#42affa"/><path d="M88.87,30.91A15.46,15.46,0,0,1,73.42,46.37h-27a15.5,15.5,0,0,0-15.51,15.5V92.69a15.5,15.5,0,0,0,15.51,15.5H77.23a15.51,15.51,0,0,0,15.51-15.5V30.91Z" fill="#005eac"/><path d="M148.9,65.62A19.84,19.84,0,0,0,155.33,51a20.29,20.29,0,0,0-20.48-20.09H108.19v77.28H139.1a22.41,22.41,0,0,0,9.8-42.57ZM117.47,40.19h17.38a11.21,11.21,0,1,1,0,22.41H117.47Zm21.25,58.73H117.47v-27h21.25a13.53,13.53,0,0,1,0,27.05Z" fill="#005eac"/><path d="M195.52,48.69a30.14,30.14,0,1,0,30.14,30.14A30.13,30.13,0,0,0,195.52,48.69Zm0,51a20.87,20.87,0,1,1,20.86-20.86A20.86,20.86,0,0,1,195.52,99.69Z" fill="#005eac"/><path d="M255,48.69a25.5,25.5,0,0,0-25.5,25.5v34h9.27v-34a16.23,16.23,0,1,1,32.46,0v34h9.28v-34A25.5,25.5,0,0,0,255,48.69Z" fill="#005eac"/><path d="M335.24,10.07c0-6.32,4.18-10.07,9.58-10.07A8.55,8.55,0,0,1,351,2.45L349,4.67A5.63,5.63,0,0,0,344.94,3c-3.59,0-6,2.66-6,7s2.14,7.06,6.2,7.06a4.62,4.62,0,0,0,2.91-.86V12H344.2V9.21h7.07v8.51a9.56,9.56,0,0,1-6.48,2.3C339.3,20,335.24,16.48,335.24,10.07Z" fill="#888"/><path d="M373.38.35h6.85c4.21,0,7.44,1.42,7.44,5.73a5.42,5.42,0,0,1-4,5.52l4.83,8.06h-4l-4.37-7.55H377v7.55h-3.59Zm6.48,9c2.75,0,4.27-1.12,4.27-3.31s-1.52-3-4.27-3H377V9.39Z" fill="#888"/><path d="M408.29,9.92C408.29,3.69,412,0,417.22,0s9,3.69,9,9.92-3.66,10.1-9,10.1S408.29,16.18,408.29,9.92Zm14.17,0c0-4.31-2-6.94-5.24-6.94S412,5.61,412,9.92,414,17,417.22,17,422.46,14.26,422.46,9.92Z" fill="#888"/><path d="M447.76,11.19V.35h3.59V11.46c0,4.19,1.65,5.58,4.1,5.58s4.21-1.39,4.21-5.58V.35h3.44V11.19c0,6.35-2.94,8.83-7.65,8.83S447.76,17.54,447.76,11.19Z" fill="#888"/><path d="M485.77.35h6.39c4.49,0,7.84,1.48,7.84,6,0,4.28-3.35,6.26-7.72,6.26h-2.91v7.08h-3.6ZM492,9.83c3,0,4.47-1.15,4.47-3.51s-1.59-3.22-4.59-3.22h-2.51V9.83Z" fill="#888"/></svg>